<svg width="1726" height="447" viewBox="0 0 1726 447" fill="none" xmlns="http://www.w3.org/2000/svg">
<path fill-rule="evenodd" clip-rule="evenodd" d="M72.211 49.5038C71.501 50.3078 69.589 50.9658 67.961 50.9658C66.332 50.9658 65 51.4158 65 51.9658C65 52.5158 64.086 52.9658 62.969 52.9658C61.851 52.9658 60.678 53.6408 60.362 54.4658C60.045 55.2908 58.709 55.9658 57.393 55.9658C55.933 55.9658 55 56.5508 55 57.4658C55 58.2908 54.515 58.9658 53.923 58.9658C52.524 58.9658 47 64.4898 47 65.8888C47 66.4808 46.515 66.9658 45.923 66.9658C44.024 66.9658 39 72.7388 39 74.9198C39 76.0798 38.325 77.2878 37.5 77.6038C36.675 77.9208 36 79.2188 36 80.4898C36 81.7598 35.506 82.9638 34.902 83.1648C34.298 83.3668 33.564 85.6538 33.272 88.2488C32.979 90.8428 32.348 92.9658 31.87 92.9658C31.381 92.9658 31 152.304 31 228.466C31 304.896 31.38 363.966 31.872 363.966C32.352 363.966 33.032 365.766 33.384 367.966C33.736 370.166 34.468 371.966 35.012 371.966C35.555 371.966 36 373.105 36 374.497C36 375.89 36.675 377.288 37.5 377.604C38.325 377.921 39 379.066 39 380.15C39 382.225 44.085 387.966 45.923 387.966C46.515 387.966 47 388.451 47 389.043C47 390.442 52.524 395.966 53.923 395.966C54.515 395.966 55 396.641 55 397.466C55 398.381 55.933 398.966 57.393 398.966C58.709 398.966 60.045 399.641 60.362 400.466C60.678 401.291 62.076 401.966 63.469 401.966C64.861 401.966 66 402.416 66 402.966C66 403.516 67.768 403.966 69.929 403.966C72.089 403.966 74.532 404.641 75.357 405.466C76.677 406.786 94.81 406.966 226.429 406.966C323.54 406.966 376 406.622 376 405.985C376 405.446 377.233 404.695 378.74 404.316C381.732 403.566 384 401.72 384 400.037C384 399.448 384.675 398.966 385.5 398.966C386.444 398.966 387 398.014 387 396.395C387 394.98 387.675 393.148 388.5 392.323C389.78 391.043 390 385.331 390 353.395V315.966H394C396.889 315.966 398 315.549 398 314.466C398 313.641 398.482 312.966 399.071 312.966C400.405 312.966 403 310.442 403 309.144C403 308.614 403.675 307.921 404.5 307.604C405.558 307.198 406 305.547 406 301.997C406 299.23 406.45 296.966 407 296.966C408.594 296.966 408.347 235.294 406.75 234.549C405.75 234.083 405.75 233.849 406.75 233.383C408.236 232.689 408.435 229.966 407 229.966C406.45 229.966 406 227.491 406 224.466C406 220.244 405.652 218.966 404.5 218.966C403.567 218.966 403 218.022 403 216.466C403 214.91 402.433 213.966 401.5 213.966C400.675 213.966 400 213.525 400 212.985C400 212.446 398.875 211.722 397.5 211.377C396.125 211.032 395 210.348 395 209.858C395 209.367 393.875 208.966 392.5 208.966H390V172.537C390 141.49 389.778 135.887 388.5 134.609C387.675 133.784 387 132.142 387 130.961C387 128.798 382.01 122.966 380.16 122.966C379.614 122.966 378.98 122.404 378.751 121.716C378.458 120.833 374.767 120.368 366.168 120.132L354 119.799V93.4408C354 76.9478 353.626 66.8528 353 66.4658C352.45 66.1258 352 64.2668 352 62.3358C352 60.4038 351.438 58.1958 350.75 57.4288C347.782 54.1198 347 52.9888 347 52.0078C347 51.4348 345.861 50.9658 344.469 50.9658C343.076 50.9658 341.678 50.2908 341.362 49.4658C340.854 48.1428 325.038 47.9698 207.143 48.0038C91.182 48.0368 73.329 48.2358 72.211 49.5038ZM79 86.8578C79 87.3478 77.875 88.0318 76.5 88.3768C75.125 88.7218 74 89.4458 74 89.9848C74 90.5248 73.325 90.9658 72.5 90.9658C71.675 90.9658 71 91.6408 71 92.4658C71 93.2908 70.55 93.9658 70 93.9658C69.417 93.9658 69 97.2988 69 101.966C69 106.633 69.417 109.966 70 109.966C70.55 109.966 71 111.091 71 112.466C71 114.436 71.507 114.966 73.393 114.966C74.709 114.966 76.045 115.641 76.362 116.466C76.678 117.291 78.076 117.966 79.469 117.966C80.861 117.966 82 118.416 82 118.966C82 119.627 121.833 119.966 199.5 119.966H317V102.966V85.9658H198C128.979 85.9658 79 86.3398 79 86.8578ZM69 256.819C69 324.25 69.34 358.966 70 358.966C70.55 358.966 71 360.091 71 361.466C71 362.841 71.511 363.966 72.135 363.966C72.76 363.966 74.313 365.091 75.588 366.466L77.905 368.966H214.952H352V343.895C352 323.499 351.734 318.557 350.571 317.395C349.41 316.233 344.481 315.966 324.178 315.966C302.91 315.966 299.129 315.744 298.638 314.466C298.322 313.641 296.924 312.966 295.531 312.966C294.139 312.966 293 312.565 293 312.074C293 311.584 291.875 310.9 290.5 310.555C289.125 310.21 288 309.486 288 308.947C288 308.407 287.325 307.966 286.5 307.966C285.675 307.966 285 307.291 285 306.466C285 305.641 284.518 304.966 283.929 304.966C282.544 304.966 280 302.422 280 301.037C280 300.448 279.325 299.966 278.5 299.966C277.675 299.966 277 299.291 277 298.466C277 297.641 276.325 296.966 275.5 296.966C274.675 296.966 274 296.291 274 295.466C274 294.641 273.559 293.966 273.019 293.966C272.48 293.966 271.756 292.841 271.411 291.466C271.066 290.091 270.382 288.966 269.892 288.966C269.401 288.966 269 287.889 269 286.573C269 285.257 268.325 283.921 267.5 283.604C266.559 283.243 266 281.714 266 279.497C266 277.555 265.55 275.966 265 275.966C264.383 275.966 264 270.799 264 262.466C264 254.133 264.383 248.966 265 248.966C265.55 248.966 266 247.648 266 246.037C266 244.427 266.675 242.434 267.5 241.609C268.325 240.784 269 239.627 269 239.037C269 238.448 269.401 237.966 269.892 237.966C270.382 237.966 271.066 236.841 271.411 235.466C271.756 234.091 272.48 232.966 273.019 232.966C273.559 232.966 274 232.291 274 231.466C274 230.641 274.675 229.966 275.5 229.966C276.433 229.966 277 229.022 277 227.466C277 225.91 277.567 224.966 278.5 224.966C279.325 224.966 280 224.291 280 223.466C280 222.533 280.944 221.966 282.5 221.966C284.056 221.966 285 221.399 285 220.466C285 219.641 285.511 218.966 286.135 218.966C286.76 218.966 288.313 217.841 289.588 216.466C290.862 215.091 292.826 213.966 293.952 213.966C295.079 213.966 296 213.521 296 212.978C296 212.434 297.8 211.702 300 211.35C302.2 210.998 304 210.318 304 209.838C304 209.358 313.788 208.96 325.75 208.952C337.712 208.945 348.512 208.667 349.75 208.336L352 207.733V181.849V155.966H218.151C144.534 155.966 80.859 155.675 76.651 155.319L69 154.673V256.819ZM311.07 247.78C309.183 248.707 306.098 250.915 304.213 252.685L300.785 255.905L301.158 264.107C301.4 269.44 301.962 272.453 302.765 272.721C303.444 272.947 304 273.77 304 274.549C304 275.329 304.675 275.966 305.5 275.966C306.325 275.966 307 276.416 307 276.966C307 277.516 308.093 277.966 309.429 277.966C310.764 277.966 312.532 278.641 313.357 279.466C314.619 280.728 319.31 280.966 342.929 280.966H371V264.083C371 247.419 370.971 247.191 368.75 246.596C367.512 246.265 354.8 246.016 340.5 246.044C318.205 246.087 314.011 246.334 311.07 247.78Z" fill="black" fill-opacity="0.4"/>
<path fill-rule="evenodd" clip-rule="evenodd" d="M87.0831 45.5C85.7476 46.1874 81.9862 46.7489 78.7238 46.7489C75.4613 46.7489 72.7914 47.1895 72.7914 47.729C72.7914 48.2675 71.6575 48.9908 70.2717 49.3355C68.8859 49.6802 67.752 50.3636 67.752 50.8531C67.752 51.3437 66.604 51.7443 65.2011 51.7443C63.7971 51.7443 62.3881 52.4187 62.0696 53.2429C61.7501 54.0672 60.8843 54.7416 60.1446 54.7416C58.3294 54.7416 49.9812 62.998 49.1396 65.6266C48.7697 66.7836 48.044 67.7297 47.527 67.7297C47.0099 67.7297 46.5866 68.4041 46.5866 69.2283C46.5866 70.0526 45.9063 70.727 45.0748 70.727C44.1526 70.727 43.563 71.6591 43.563 73.1178C43.563 74.4326 42.8827 75.7674 42.0512 76.0841C41.2197 76.3998 40.5394 77.7965 40.5394 79.1882C40.5394 80.579 40.0858 81.7169 39.5315 81.7169C38.9772 81.7169 38.5236 83.9789 38.5236 86.7434C38.5236 90.2901 38.0781 91.9396 37.0118 92.3452C35.8245 92.7968 35.5 94.83 35.5 101.806C35.5 107.063 35.9112 110.69 36.5079 110.69C37.0622 110.69 37.5157 125.57 37.5157 113.688C37.5157 101.806 37.0622 116.685 36.5079 116.685C34.9366 116.685 36.252 143.436 36 134.5C35.748 125.564 37.0079 134.034 36 134.5C34.2654 135.302 35.0253 156.263 36.7598 157.065C37.7677 157.531 35.6217 152.394 35.9455 159C36.2692 165.606 34.9668 174.632 36.5079 174.632C37.1438 174.632 36 181.638 36 193.294C36 204.95 34.7116 347.174 35.6217 233.925C36.5318 120.676 36.5079 212.326 36.5079 213.425C36.5079 214.524 36.5158 215.264 36.5079 215.595C36.5 215.925 36.5079 216.227 36.5079 218.425C36.5079 220.623 36.5079 220.925 35.9455 223.425C35.383 225.925 36 224.551 36 225.925C36 227.299 36 225.925 35.9455 227.925C35.8909 229.925 36 229.269 36 230.425C36 231.582 36.5079 173.977 36.5079 174.632C36.5079 175.287 35.5 237.075 35.5 246.067C35.5 255.059 34.8741 260.425 35.5 260.425C36.0684 260.425 35.5 264.261 35.5 267.925C35.5 271.589 37.0763 273.542 36.5079 273.542C35.9072 273.542 35.5 277.371 35.5 283.033C35.5 288.695 35.3993 294.425 36 294.425C35.7217 292.149 36.5543 294.425 36 294.425C36 295.249 36.5543 294.425 36 294.425C34.5335 294.425 35.1382 346.19 36.6056 346.674C37.2356 346.882 37.9471 350.785 38.2596 355.749C38.5609 360.539 39.1969 364.459 39.6736 364.459C40.1493 364.459 40.5394 365.597 40.5394 366.988C40.5394 368.379 41.2197 369.776 42.0512 370.092C42.8827 370.408 43.563 371.743 43.563 373.058C43.563 374.373 44.0075 375.449 44.5517 375.449C45.095 375.449 45.8247 376.573 46.1724 377.947C46.5201 379.32 47.4363 380.444 48.2073 380.444C48.9793 380.444 49.6103 380.926 49.6103 381.514C49.6103 382.898 52.1743 385.44 53.5702 385.44C54.1638 385.44 54.6496 386.065 54.6496 386.83C54.6496 387.595 55.7835 388.503 57.1693 388.848C58.5551 389.192 59.689 389.916 59.689 390.454C59.689 390.994 60.3693 391.434 61.2008 391.434C62.0323 391.434 62.7126 392.109 62.7126 392.933C62.7126 393.865 63.6641 394.432 65.2323 394.432C66.6182 394.432 67.752 394.881 67.752 395.431C67.752 395.98 68.9 396.43 70.303 396.43C71.7069 396.43 73.1159 397.104 73.4344 397.928C73.8779 399.073 75.7727 399.427 81.4662 399.427C85.7617 399.427 88.9174 399.851 88.9174 400.426C88.9174 401.087 137.8 401.425 233.548 401.425C329.296 401.425 378.178 401.087 378.178 400.426C378.178 399.877 379.992 399.427 382.209 399.427C385.121 399.427 386.241 399.01 386.241 397.928C386.241 397.014 387.18 396.43 388.651 396.43C390.382 396.43 391.24 395.725 391.694 393.932C392.042 392.558 392.772 391.434 393.315 391.434C393.859 391.434 394.304 389.186 394.304 386.439C394.304 383.691 394.757 381.443 395.312 381.443C395.96 381.443 396.319 371.286 396.319 352.969C396.319 334.653 395.96 324.495 395.312 324.495C394.743 324.495 394.304 321.665 394.304 318.001V311.507H398.335C401.247 311.507 402.367 311.091 402.367 310.009C402.367 309.076 403.318 308.51 404.886 308.51C406.455 308.51 407.406 307.943 407.406 307.011C407.406 306.187 408.086 305.513 408.918 305.513C409.858 305.513 410.43 304.57 410.43 303.015C410.43 301.641 410.883 300.517 411.438 300.517C412.094 300.517 412.445 286.03 412.445 259.055C412.445 232.08 412.094 217.593 411.438 217.593C410.883 217.593 410.43 216.469 410.43 215.095C410.43 213.541 409.858 212.597 408.918 212.597C408.086 212.597 407.406 212.116 407.406 211.527C407.406 209.66 404.614 207.602 402.081 207.602C398 207.602 395.445 203.62 395.445 198.925C395.445 196.7 395.312 195.425 395.312 194.614C395.312 193.803 396.665 142.988 395.06 142.245C394.052 141.779 394.052 141.545 395.06 141.08C396.55 140.389 396.775 134.669 395.312 134.669C394.757 134.669 394.304 132.902 394.304 130.743C394.304 128.585 393.623 126.144 392.792 125.32C391.96 124.496 391.28 123.388 391.28 122.859C391.28 122.33 390.146 121.615 388.76 121.27C387.375 120.925 386.241 120.202 386.241 119.663C386.241 119.124 385.744 118.838 384.913 118.838C384.081 118.838 382.945 117.975 382.945 117.425C382.945 116.815 378.513 116.685 371.123 116.685H359.028V86.7124C359.028 68.8407 358.648 56.7397 358.088 56.7397C357.571 56.7397 356.831 55.7486 356.443 54.5387C355.619 51.9661 353.582 49.7461 352.044 49.7461C351.451 49.7461 350.965 49.0717 350.965 48.2475C350.965 47.1705 349.854 46.7489 347.017 46.7489C344.846 46.7489 342.919 46.3043 342.734 45.7608C342.191 44.1622 90.1833 43.9055 87.0831 45.5ZM82.6182 81.4062C81.6476 81.658 80.8544 82.2315 80.8544 82.6811C80.8544 83.1306 79.7205 83.7811 78.3347 84.1257C76.708 84.5304 75.815 85.4535 75.815 86.7314C75.815 87.8244 75.1387 88.7106 74.3032 88.7106C73.0655 88.7106 72.7914 90.431 72.7914 98.2019C72.7914 105.973 73.0655 107.693 74.3032 107.693C75.1347 107.693 73.9454 107.876 73.9454 108.425C73.9454 109.483 79.4464 113.688 80.422 113.688C80.7395 113.688 81.6788 114.362 82.5103 115.186C83.8367 116.502 98.6717 116.685 203.778 116.685H323.534L324.129 114.333C324.868 111.415 324.83 86.037 324.081 82.9658L323.534 80.7178L203.958 80.8337C138.192 80.8977 83.5888 81.1555 82.6182 81.4062ZM72.7914 252.592C72.7914 344.059 72.9728 356.598 74.3032 357.104C75.1347 357.42 75.815 358.521 75.815 359.551C75.815 360.7 76.7604 361.658 78.2621 362.032C79.6077 362.367 80.9542 363.275 81.2535 364.049C81.7192 365.252 101.993 365.458 219.827 365.458C295.742 365.458 358.572 365.185 359.449 364.852C360.845 364.321 361.042 361.119 361.029 339.125C361.02 325.309 360.676 313.48 360.265 312.839C359.739 312.02 352.354 311.574 335.419 311.34C317.279 311.09 311.216 310.699 310.901 309.759C310.663 309.051 308.819 308.51 306.643 308.51C304.159 308.51 302.598 307.98 302.222 307.011C301.904 306.187 300.721 305.513 299.595 305.513C298.469 305.513 298 305.425 297.5 304.925C297 304.425 296.5 303.925 296.144 303.514C295.787 303.104 295 302.425 294.159 302.016C293.318 301.607 292.658 300.517 291.532 300.517C290.384 300.517 289.485 299.859 289.485 299.019C289.485 298.194 288.804 297.52 287.973 297.52C287.141 297.52 286.946 296.925 286.446 296.425C285.946 295.925 287.402 297.547 285.201 293.986C283 290.425 283 289.925 281.422 288.57C279.843 287.215 280.5 287.925 280.162 287.503C279.824 287.081 275.874 279.71 275.5 278.925C275.126 278.141 275 277.925 274.5 276.925C274 275.925 273.449 273.846 272.5 271.925C271.551 270.004 271.593 266.548 271.309 266.548C271.024 266.548 270.056 250.822 271.471 250.354C272.096 250.147 272.834 247.637 273.111 244.776C273.388 241.914 273.961 239.573 274.386 239.573C274.809 239.573 275.441 238.449 275.789 237.075C276.136 235.701 276.866 234.577 277.409 234.577C277.954 234.577 278.398 233.678 278.398 232.579C278.398 231.48 278.821 230.581 279.338 230.581C279.856 230.581 280.595 229.59 280.983 228.38C281.807 225.807 283.844 223.587 285.382 223.587C285.975 223.587 286.461 222.913 286.461 222.089C286.461 221.265 287.141 220.59 287.973 220.59C288.804 220.59 289.485 220.109 289.485 219.52C289.485 217.996 291.724 215.976 294.319 215.16C295.54 214.775 294.5 215.438 294.5 214.925C294.5 214.413 296.736 212 297.5 212C298.263 212 298.785 211.003 300.143 210.501C301.5 210 302.5 209.425 303.5 208.925C304.5 208.425 306.5 207.425 306.5 207.425C306.5 207.425 309.5 205.842 313 205.5C316.5 205.158 315.5 204.5 319 204.5C322.5 204.5 330.232 204.529 341.138 204.377L360.54 204.105V177.629V151.154L218.177 150.901C124.44 150.734 75.815 150.307 75.815 149.652C75.815 149.103 75.1347 148.656 74.3032 148.656C72.9688 148.656 72.7914 160.871 72.7914 252.592ZM315.689 242.551C315.689 243.09 314.556 243.813 313.17 244.158C311.784 244.502 311.15 245.175 310.445 245.925C309.741 246.675 309.945 246.925 309.138 247.425C308.331 247.925 308.126 248.563 307.445 249.425C306.764 250.287 306.445 250.925 305.987 251.925C305.528 252.925 304.429 253.419 304.851 257.764C305.128 260.626 304.987 262.425 305.445 263.925C305.904 265.425 305.748 265.425 305.945 266.925C306.143 268.425 307.445 269.925 307.445 269.925C307.445 269.925 308.445 271.925 308.945 272.425C309.445 272.925 310.825 273.819 312.445 275.425L316.542 276.539H347.36H378.178V259.055V241.571H346.933C327.18 241.571 315.689 241.932 315.689 242.551Z" fill="#3A82F5"/>
<path d="M525.963 334V115.818H670.423V153.851H572.092V205.839H660.835V243.872H572.092V334H525.963ZM700.599 334V170.364H745.983V334H700.599ZM723.397 149.27C716.65 149.27 710.862 147.033 706.032 142.558C701.274 138.013 698.895 132.58 698.895 126.259C698.895 120.009 701.274 114.646 706.032 110.172C710.862 105.626 716.65 103.354 723.397 103.354C730.145 103.354 735.897 105.626 740.656 110.172C745.485 114.646 747.9 120.009 747.9 126.259C747.9 132.58 745.485 138.013 740.656 142.558C735.897 147.033 730.145 149.27 723.397 149.27ZM827.721 239.398V334H782.337V170.364H825.59V199.234H827.508C831.13 189.717 837.202 182.189 845.725 176.649C854.248 171.038 864.582 168.233 876.727 168.233C888.09 168.233 897.998 170.719 906.45 175.69C914.901 180.662 921.471 187.764 926.158 196.997C930.846 206.159 933.19 217.097 933.19 229.81V334H887.806V237.906C887.877 227.892 885.32 220.08 880.136 214.469C874.951 208.787 867.813 205.946 858.722 205.946C852.614 205.946 847.217 207.26 842.529 209.888C837.913 212.516 834.29 216.351 831.663 221.393C829.106 226.365 827.792 232.366 827.721 239.398ZM1007.42 334H957.985L1033.31 115.818H1092.75L1167.96 334H1118.53L1063.88 165.676H1062.18L1007.42 334ZM1004.33 248.24H1121.09V284.249H1004.33V248.24ZM1193.37 395.364V170.364H1238.12V197.849H1240.14C1242.13 193.446 1245.01 188.972 1248.77 184.426C1252.61 179.81 1257.58 175.974 1263.69 172.92C1269.86 169.795 1277.53 168.233 1286.7 168.233C1298.63 168.233 1309.64 171.358 1319.72 177.608C1329.81 183.787 1337.87 193.126 1343.91 205.626C1349.94 218.055 1352.96 233.645 1352.96 252.395C1352.96 270.648 1350.01 286.06 1344.12 298.631C1338.29 311.131 1330.34 320.612 1320.25 327.075C1310.24 333.467 1299.02 336.663 1286.59 336.663C1277.78 336.663 1270.29 335.207 1264.11 332.295C1258 329.384 1253 325.726 1249.09 321.322C1245.18 316.848 1242.2 312.338 1240.14 307.793H1238.76V395.364H1193.37ZM1237.8 252.182C1237.8 261.912 1239.15 270.399 1241.85 277.643C1244.54 284.888 1248.45 290.534 1253.56 294.582C1258.68 298.56 1264.89 300.548 1272.21 300.548C1279.59 300.548 1285.84 298.524 1290.96 294.476C1296.07 290.357 1299.94 284.675 1302.57 277.43C1305.27 270.115 1306.62 261.699 1306.62 252.182C1306.62 242.736 1305.3 234.426 1302.68 227.253C1300.05 220.08 1296.18 214.469 1291.06 210.42C1285.95 206.372 1279.67 204.348 1272.21 204.348C1264.82 204.348 1258.57 206.301 1253.46 210.207C1248.42 214.114 1244.54 219.653 1241.85 226.827C1239.15 234 1237.8 242.452 1237.8 252.182ZM1383.22 395.364V170.364H1427.96V197.849H1429.98C1431.97 193.446 1434.85 188.972 1438.61 184.426C1442.45 179.81 1447.42 175.974 1453.53 172.92C1459.71 169.795 1467.38 168.233 1476.54 168.233C1488.47 168.233 1499.48 171.358 1509.57 177.608C1519.65 183.787 1527.71 193.126 1533.75 205.626C1539.79 218.055 1542.8 233.645 1542.8 252.395C1542.8 270.648 1539.86 286.06 1533.96 298.631C1528.14 311.131 1520.18 320.612 1510.1 327.075C1500.08 333.467 1488.86 336.663 1476.43 336.663C1467.63 336.663 1460.13 335.207 1453.95 332.295C1447.85 329.384 1442.84 325.726 1438.93 321.322C1435.03 316.848 1432.04 312.338 1429.98 307.793H1428.6V395.364H1383.22ZM1427.64 252.182C1427.64 261.912 1428.99 270.399 1431.69 277.643C1434.39 284.888 1438.29 290.534 1443.41 294.582C1448.52 298.56 1454.74 300.548 1462.05 300.548C1469.44 300.548 1475.69 298.524 1480.8 294.476C1485.92 290.357 1489.79 284.675 1492.41 277.43C1495.11 270.115 1496.46 261.699 1496.46 252.182C1496.46 242.736 1495.15 234.426 1492.52 227.253C1489.89 220.08 1486.02 214.469 1480.91 210.42C1475.79 206.372 1469.51 204.348 1462.05 204.348C1454.67 204.348 1448.42 206.301 1443.3 210.207C1438.26 214.114 1434.39 219.653 1431.69 226.827C1428.99 234 1427.64 242.452 1427.64 252.182Z" fill="white"/>
</svg>
